<svg xmlns="http://www.w3.org/2000/svg" xmlns:xlink="http://www.w3.org/1999/xlink" width="1080" zoomAndPan="magnify" viewBox="0 0 810 809.999993" height="1080" preserveAspectRatio="xMidYMid meet" version="1.0"><defs><g/></defs><g fill="#ee2b69" fill-opacity="1"><g transform="translate(-4.961818, 603.451746)"><g><path d="M 50.34375 0 L 50.34375 -387.34375 L 126.90625 -387.34375 L 126.90625 -229.171875 L 135.390625 -229.171875 L 264.6875 -387.34375 L 343.109375 -387.34375 L 343.109375 -380.734375 L 200.5625 -204.53125 L 357.9375 -6.625 L 357.9375 0 L 271.3125 0 L 135.390625 -167.1875 L 126.90625 -167.1875 L 126.90625 0 Z M 50.34375 0 "/></g></g></g><g fill="#ee2b69" fill-opacity="1"><g transform="translate(314.993049, 603.451746)"><g><path d="M 120.546875 0 L 50.34375 0 L 50.34375 -387.34375 L 150.484375 -387.34375 L 248.515625 -102.53125 L 254.078125 -102.53125 L 351.578125 -387.34375 L 449.34375 -387.34375 L 449.34375 0 L 376.75 0 L 376.75 -255.9375 L 370.125 -257 L 280.578125 0 L 216.71875 0 L 127.171875 -257 L 120.546875 -255.9375 Z M 120.546875 0 "/></g></g></g></svg>